<svg xmlns="http://www.w3.org/2000/svg" viewBox="0 0 48 48" width="48" height="48" role="img" aria-label="RespiraHome">
  <defs>
    <linearGradient id="rh" x1="0" y1="0" x2="1" y2="1">
      <stop offset="0" stop-color="#17a2b0"/>
      <stop offset="1" stop-color="#0f7c8a"/>
    </linearGradient>
  </defs>
  <rect x="2" y="2" width="44" height="44" rx="13" fill="url(#rh)"/>
  <!-- Casa + pulmón/respiración estilizado -->
  <path d="M24 11l11 9v1.5a1.5 1.5 0 01-1.5 1.5H33v10.5A2.5 2.5 0 0130.5 37h-13A2.5 2.5 0 0115 34.5V24h-.5A1.5 1.5 0 0113 22.5V20l11-9z" fill="#fff" opacity=".16"/>
  <path d="M24 17.5c.6 0 1 .4 1 1v3.2c.5-.4 1.1-.6 1.7-.5 1.4.2 2.2 1.5 2.4 2.9.1.9.1 1.9-.2 2.7-.5 1.4-1.7 2.3-3 2.3-1.4 0-2.4-1.1-2.4-2.5v-2.6a.5.5 0 00-1 0v2.6c0 1.4-1 2.5-2.4 2.5-1.3 0-2.5-.9-3-2.3-.3-.8-.3-1.8-.2-2.7.2-1.4 1-2.7 2.4-2.9.6-.1 1.2.1 1.7.5v-3.2c0-.6.4-1 1-1z" fill="#fff"/>
</svg>
